<?xml version="1.0" encoding="UTF-8"?>
<svg width="752pt" height="752pt" version="1.1" viewBox="0 0 752 752" xmlns="http://www.w3.org/2000/svg">
 <path d="m560.7 409.15c-18.219 0-27.113-16.414-34.961-30.895-7.2266-13.336-14.055-25.934-26.633-25.934s-19.406 12.598-26.633 25.938c-7.8477 14.477-16.742 30.891-34.961 30.891-18.207 0-27.098-16.414-34.941-30.895-7.2227-13.336-14.043-25.934-26.609-25.934-12.574 0-19.395 12.598-26.621 25.934-7.8477 14.48-16.738 30.895-34.953 30.895-18.207 0-27.098-16.414-34.938-30.895-7.2227-13.336-14.043-25.934-26.609-25.934-12.562 0-19.383 12.598-26.602 25.934-7.8398 14.48-16.727 30.895-34.934 30.895-2.6172 0-4.7344-2.1211-4.7344-4.7344 0-2.6172 2.1211-4.7344 4.7344-4.7344 12.562 0 19.383-12.598 26.602-25.934 7.8398-14.484 16.727-30.898 34.934-30.898 18.211 0 27.098 16.414 34.941 30.895 7.2188 13.336 14.039 25.934 26.605 25.934 12.574 0 19.398-12.598 26.621-25.938 7.8477-14.477 16.738-30.891 34.953-30.891 18.207 0 27.098 16.414 34.941 30.895 7.2188 13.336 14.043 25.934 26.609 25.934 12.578 0 19.406-12.598 26.633-25.938 7.8477-14.477 16.742-30.891 34.961-30.891s27.113 16.414 34.961 30.895c7.2266 13.336 14.055 25.934 26.633 25.934 2.6172 0 4.7344 2.1211 4.7344 4.7344 0 2.6172-2.1211 4.7383-4.7344 4.7383z" fill="#fac100"/>
</svg>
